# xmcd
#
# Track frame offsets: 
#        150
#        18652
#        41625
#        71087
#        102888
#        146588
#        202655
#        219395
#
# Disc length: 3497 seconds
#
# Revision: 2
# Processed by: cddbd v1.5.2PL0 Copyright (c) Steve Scherf et al.
# Submitted via: ExactAudioCopy v1.1
#
DISCID=6f0da708
DTITLE=Itzhak Perlman, New Philharmonia Orchestra cond. by Jesús López
DTITLE=Cobos - Bruch: Scottish Fantasy, Op.46 and Violin Concerto No.2 
DTITLE=in D minor, Op.44 [2010 remaster]
DYEAR=1976
DGENRE=Classical
TTITLE0=Scottish Fantasy, Op.46 Introduction: Grave
TTITLE1=Scottish Fantasy, Op.46 1. Adagio cantabile
TTITLE2=Scottish Fantasy, Op.46 2. Allegro
TTITLE3=Scottish Fantasy, Op.46 3. Andante sostenuto
TTITLE4=Scottish Fantasy, Op.46 4. Allegro guerriero
TTITLE5=Violin Concerto No.2 Op.44 1. Adagio ma non troppo
TTITLE6=Violin Concerto No.2 Op.44 2. Recitativo (Allegro moderato)
TTITLE7=Violin Concerto No.2 Op.44 3. Finale (Allegro molto)
EXTD=YEAR: 1976
EXTT0=
EXTT1=
EXTT2=
EXTT3=
EXTT4=
EXTT5=
EXTT6=
EXTT7=
PLAYORDER=
